<svg id="Layer_1" data-name="Layer 1" xmlns="http://www.w3.org/2000/svg" viewBox="0 0 111.67 124.91"><defs><style>.cls-1{fill:#1e1d40;}</style></defs><title>pawprint</title><path class="cls-1" d="M693.84,180.75c2.56-3.35,14.09-15.78,28.83-4.6s19.43,19.39,24.18,25.9c5.5,7.54,19.09,32.13-4.78,38.65-9.17,2.5-5.94,1-26.41,8.91s-45,3.38-39.42-29.15A88.87,88.87,0,0,1,693.84,180.75Z" transform="translate(-648.43 -128.09)"/><path class="cls-1" d="M678.59,184.42c4.75,11.14,2.41,22.82-5.24,26.09s-17.7-3.12-22.46-14.26-2.41-22.82,5.24-26.09S673.83,173.28,678.59,184.42Z" transform="translate(-648.43 -128.09)"/><path class="cls-1" d="M697.3,152.47c4.47,10.46,1.82,21.62-5.91,24.92s-17.62-2.51-22.08-13-1.82-21.61,5.91-24.91S692.84,142,697.3,152.47Z" transform="translate(-648.43 -128.09)"/><path class="cls-1" d="M730.31,150.07c-.61,11.68-7.92,20.79-16.32,20.35s-14.7-10.28-14.08-22,7.93-20.8,16.32-20.35S730.93,138.38,730.31,150.07Z" transform="translate(-648.43 -128.09)"/><path class="cls-1" d="M759.61,170.7c-2.09,11.61-10.17,19.87-18.06,18.46S729,177.18,731,165.58s10.17-19.87,18.06-18.45S761.69,159.1,759.61,170.7Z" transform="translate(-648.43 -128.09)"/></svg>