<svg id="Layer_1" data-name="Layer 1" xmlns="http://www.w3.org/2000/svg" viewBox="0 0 352.16 393.91"><defs><style>.cls-1{fill:#4ab0d9;}</style></defs><title>pawprint-lightblue</title><path class="cls-1" d="M791.64,294.15c8.05-10.56,44.43-49.76,90.9-14.51s61.29,61.14,76.28,81.68c17.33,23.77,60.17,101.34-15.09,121.9-28.91,7.88-18.72,3.07-83.27,28.08S718.41,522,736.13,419.39C749.33,343,791.64,294.15,791.64,294.15Z" transform="translate(-648.43 -128.09)"/><path class="cls-1" d="M743.53,305.73c15,35.14,7.62,72-16.5,82.27s-55.84-9.84-70.83-45-7.62-72,16.5-82.27S728.54,270.61,743.53,305.73Z" transform="translate(-648.43 -128.09)"/><path class="cls-1" d="M802.55,205c14.09,33,5.75,68.17-18.63,78.59s-55.57-7.91-69.65-40.89-5.74-68.16,18.64-78.57S788.47,172,802.55,205Z" transform="translate(-648.43 -128.09)"/><path class="cls-1" d="M906.65,197.39c-1.94,36.85-25,65.58-51.46,64.18s-46.35-32.41-44.41-69.25,25-65.58,51.47-64.18S908.6,160.55,906.65,197.39Z" transform="translate(-648.43 -128.09)"/><path class="cls-1" d="M999,262.47c-6.56,36.61-32.06,62.66-56.93,58.2s-39.72-37.76-33.16-74.36,32.07-62.65,56.95-58.19S1005.61,225.87,999,262.47Z" transform="translate(-648.43 -128.09)"/></svg>